{"title":"Pitch Black (2000) (RETAIL)(ENG+GER+NL SUBS) Hornigold TBS","uid":6037247,"size":4691697581,"categoryP":"video","categoryS":"movies_dvdr","magnet":"?xt=urn:btih:f13f09ff1161fa0309231f7cfb797eae63d93c5c&amp;dn=Pitch+Black+%282000%29+%28RETAIL%29%28ENG%2BGER%2BNL+SUBS%29+Hornigold+TBS&amp;tr=udp%3A%2F%2Ftracker.openbittorrent.com%3A80&amp;tr=udp%3A%2F%2Fopen.demonii.com%3A1337&amp;tr=udp%3A%2F%2Ftracker.coppersurfer.tk%3A6969&amp;tr=udp%3A%2F%2Fexodus.desync.com%3A6969","seeders":1,"leechers":0,"uploader":"de_spijker","files":-1,"time":1292277720,"description":"For English, please scroll down!\n\n************************************************************\nPitch Black (2000)\n\nAustraliÃƒÂ« / Verenigde Staten, Actie / Science-Fiction, 109 minuten / 112 minuten (unrated version). Geregisseerd door David Twohy. Met Vin Diesel, Radha Mitchell en Cole Hauser.\n\nGetroffen door een meteorietenregen moet een transportschip, met aan boord de levensgevaarlijke gevangene Riddick, een noodlanding maken op een afgelegen en levenloze planeet. Wanneer echter een eclips de planeet in volledige duisternis hult worden de overlevenden van de crash geconfronteerd met de monsterlijke bewoners van de planeet die slechts ÃƒÂ©ÃƒÂ©n vijand kennen: licht. Hun enige redding blijkt Riddick te zijn, wiens bijzondere gezichtsvermogen hem in staat stelt in het pikkedonker te kunnen zien. Maar leg je je lot in handen van een moordenaar?\n\nTaal: Engels &amp; Duits (5.1)\nOndertitelingen: Engels, Duits en Nederlands.\nCategorie : Beeld\nFormaat : DVD5 \nBron : Retail\nGenre : Actie/ Science-Fiction\nWeblink : http://www.moviemeter.nl/film/46\n\n******************************\n\nAustralia / USA, Action / Science-Fiction, 109 minutes / 112 minutes (unrated version). Directe by David Twohy. With Vin Diesel, Radha Mitchell and Cole Hauser.\n\nDangerous criminal Richard B. Riddick is being transported to prison in a cargo spacecraft. When the spaceship is damaged by comet debris and makes an emergency crash landing on an empty desert planet, Riddick escapes. However, when predatory flying alien creatures begin attacking the survivors, Riddick joins forces with the crew to develop a plan to escape the planet.\n\nLanguage: English and German (5.1)\nSubtitles: English, German and Dutch\nCategory : Movie \nFormat : DVD5\nSource : Retail\nGenre : Action/ Science-Fiction\nWeblink : http://www.imdb.com/title/tt0134847/ \n\nVideo and Audio information:\n******************************\nVideo\nID                               : 224 (0xE0)\nFormat                           : MPEG Video\nFormat version                   : Version 2\nFormat profile                   : Main@Main\nFormat settings, BVOP            : Yes\nFormat settings, Matrix          : Default\nDuration                         : 28mn 30s\nBit rate mode                    : Variable\nBit rate                         : 4 538 Kbps\nNominal bit rate                 : 9 800 Kbps\nWidth                            : 720 pixels\nHeight                           : 576 pixels\nDisplay aspect ratio             : 16:9\nFrame rate                       : 25.000 fps\nStandard                         : PAL\nColor space                      : YUV\nChroma subsampling               : 4:2:0\nBit depth                        : 8 bits\nBits/(Pixel*Frame)               : 0.438\nStream size                      : 925 MiB (90%)\n\nAudio\nID                               : 128 (0x80)\nFormat                           : AC-3\nFormat/Info                      : Audio Coding 3\nMode extension                   : CM (complete main)\nDuration                         : 28mn 30s\nBit rate mode                    : Constant\nBit rate                         : 384 Kbps\nChannel(s)                       : 6 channels\nChannel positions                : Front: L C R, Side: L R, LFE\nSampling rate                    : 48.0 KHz\nBit depth                        : 16 bits\nStream size                      : 78.3 MiB (8%)\n\n******************************\nHornigold TBS","torrent":{"xt":"urn:btih:f13f09ff1161fa0309231f7cfb797eae63d93c5c","amp;dn":"Pitch+Black+%282000%29+%28RETAIL%29%28ENG%2BGER%2BNL+SUBS%29+Hornigold+TBS","amp;tr":["udp%3A%2F%2Ftracker.openbittorrent.com%3A80","udp%3A%2F%2Fopen.demonii.com%3A1337","udp%3A%2F%2Ftracker.coppersurfer.tk%3A6969","udp%3A%2F%2Fexodus.desync.com%3A6969"],"infoHash":"f13f09ff1161fa0309231f7cfb797eae63d93c5c","infoHashBuffer":{"type":"Buffer","data":[241,63,9,255,17,97,250,3,9,35,31,124,251,121,126,174,99,217,60,92]},"announce":[],"urlList":[]}}